<svg width="14" height="14" viewBox="0 0 14 14" fill="none" xmlns="http://www.w3.org/2000/svg">
<path d="M0.75 14C0.5375 14 0.359375 13.9285 0.215625 13.7856C0.0718751 13.6427 0 13.4656 0 13.2544C0 13.0431 0.0718751 12.8646 0.215625 12.7187C0.359375 12.5729 0.5375 12.5 0.75 12.5H1.5V1.5C1.5 1.0875 1.64687 0.734375 1.94062 0.440625C2.23437 0.146875 2.5875 0 3 0H11C11.4125 0 11.7656 0.146875 12.0594 0.440625C12.3531 0.734375 12.5 1.0875 12.5 1.5V12.5H13.2456C13.4569 12.5 13.6354 12.5715 13.7812 12.7144C13.9271 12.8573 14 13.0344 14 13.2456C14 13.4569 13.9281 13.6354 13.7844 13.7812C13.6406 13.9271 13.4625 14 13.25 14H0.75ZM3 12.5H11V1.5H3V12.5ZM5.23977 7.5C5.45517 7.5 5.63573 7.42715 5.78144 7.28144C5.92715 7.13573 6 6.95517 6 6.73977C6 6.52437 5.92715 6.34722 5.78144 6.20833C5.63573 6.06944 5.45517 6 5.23977 6C5.02437 6 4.84722 6.06944 4.70833 6.20833C4.56944 6.34722 4.5 6.52437 4.5 6.73977C4.5 6.95517 4.56944 7.13573 4.70833 7.28144C4.84722 7.42715 5.02437 7.5 5.23977 7.5Z" fill="#146DFF"/>
</svg>
