<svg width="56" height="56" viewBox="0 0 56 56" fill="none" xmlns="http://www.w3.org/2000/svg">
<rect x="4" y="4" width="48" height="48" rx="24" fill="#A9DEFF"/>
<rect x="4" y="4" width="48" height="48" rx="24" stroke="#CFEFFF" stroke-width="8"/>
<path d="M17 20.0001V26.0001M17 26.0001H23M17 26.0001L21.64 21.6401C22.7147 20.5648 24.0444 19.7793 25.5048 19.3568C26.9652 18.9344 28.5089 18.8888 29.9917 19.2243C31.4745 19.5598 32.8482 20.2655 33.9845 21.2755C35.1209 22.2855 35.9828 23.5669 36.49 25.0001M39 36.0001V30.0001M39 30.0001H33M39 30.0001L34.36 34.3601C33.2853 35.4354 31.9556 36.2209 30.4952 36.6433C29.0348 37.0657 27.4911 37.1113 26.0083 36.7758C24.5255 36.4403 23.1518 35.7346 22.0155 34.7247C20.8791 33.7147 20.0172 32.4333 19.51 31.0001" stroke="#0059FF" stroke-width="2" stroke-linecap="round" stroke-linejoin="round"/>
</svg>
