<svg width="15" height="20" viewBox="0 0 15 20" fill="none" xmlns="http://www.w3.org/2000/svg">
<mask id="path-1-inside-1_21076_243807" fill="white">
<path fill-rule="evenodd" clip-rule="evenodd" d="M9.73528 0.445956C11.7187 1.17247 13.3388 2.749 14.0944 4.79777H14.1016C14.385 5.58967 14.5375 6.42516 14.5375 7.26792C14.5375 10.4646 12.9319 12.4116 10.8541 14.5258C9.58272 16.0006 8.58739 17.7007 7.92626 19.5387C7.84635 19.7422 7.67925 19.9093 7.46856 19.9746C7.08351 20.0982 6.67666 19.8875 6.55315 19.5097C6.001 17.8242 5.11466 16.2767 3.94497 14.9472C3.8894 14.8883 3.83676 14.8251 3.78377 14.7614C3.71898 14.6835 3.65364 14.605 3.58171 14.5331C2.2086 13.0728 0.995324 11.627 0.399583 9.77439C0.341461 9.59276 0.28334 9.40387 0.23975 9.20771C0.181628 8.98249 0.138038 8.75727 0.101712 8.52479C0.0944468 8.47756 0.0889979 8.42852 0.0835491 8.37948C0.0781002 8.33044 0.0726514 8.2814 0.0653862 8.23418C0.0217954 7.91452 0 7.59485 0 7.26792C0 7.0209 0.0145303 6.77389 0.0363257 6.52687C0.0401274 6.48506 0.0479078 6.44523 0.055503 6.40635C0.0624223 6.37092 0.0691879 6.33629 0.0726514 6.30166C0.0749777 6.2846 0.077304 6.26745 0.0796392 6.25025C0.0991822 6.10624 0.119344 5.95766 0.145303 5.81489C0.167098 5.70592 0.196158 5.59694 0.225218 5.48797L0.225219 5.48796C0.23003 5.46872 0.23484 5.44928 0.239684 5.4297C0.2641 5.33103 0.289353 5.22897 0.319666 5.13197C0.363257 5.00846 0.406848 4.89222 0.450438 4.77598C0.472234 4.72512 0.490397 4.67245 0.50856 4.61978C0.526723 4.5671 0.544885 4.51443 0.566681 4.46358C0.595741 4.39093 0.631259 4.31828 0.666777 4.24563C0.684536 4.2093 0.702296 4.17297 0.719249 4.13665C0.738194 4.09876 0.75613 4.05986 0.774186 4.0207C0.804598 3.95475 0.835347 3.88807 0.871816 3.82424C0.911612 3.74465 0.955856 3.67396 1.00107 3.60172C1.01363 3.58164 1.02627 3.56144 1.03891 3.5409C1.06071 3.50458 1.0817 3.46825 1.10269 3.43193C1.14466 3.35928 1.18664 3.28663 1.23507 3.21397C1.27558 3.15321 1.31962 3.09598 1.36472 3.03736C1.38433 3.01187 1.40415 2.98612 1.42397 2.95969C1.46393 2.90884 1.50207 2.85798 1.54021 2.80713C1.57835 2.75627 1.61649 2.70541 1.65645 2.65456C2.98597 1.03443 5.00568 0.00278275 7.26514 0.0100479C7.46856 0.0100479 7.67198 0.0245782 7.87541 0.0391084C7.90084 0.0391084 7.92445 0.042741 7.94806 0.0463736C7.97167 0.0500061 7.99528 0.0536387 8.02071 0.0536387C8.17328 0.068169 8.32585 0.0826993 8.47115 0.11176C8.53653 0.126288 8.60917 0.140816 8.68181 0.155345L8.68184 0.155351C8.79808 0.177146 8.92159 0.206207 9.03783 0.235267C9.13228 0.257063 9.21946 0.278858 9.30664 0.307918L9.58998 0.3951C9.64084 0.40963 9.68443 0.424161 9.73528 0.445956Z"/>
</mask>
<path fill-rule="evenodd" clip-rule="evenodd" d="M9.73528 0.445956C11.7187 1.17247 13.3388 2.749 14.0944 4.79777H14.1016C14.385 5.58967 14.5375 6.42516 14.5375 7.26792C14.5375 10.4646 12.9319 12.4116 10.8541 14.5258C9.58272 16.0006 8.58739 17.7007 7.92626 19.5387C7.84635 19.7422 7.67925 19.9093 7.46856 19.9746C7.08351 20.0982 6.67666 19.8875 6.55315 19.5097C6.001 17.8242 5.11466 16.2767 3.94497 14.9472C3.8894 14.8883 3.83676 14.8251 3.78377 14.7614C3.71898 14.6835 3.65364 14.605 3.58171 14.5331C2.2086 13.0728 0.995324 11.627 0.399583 9.77439C0.341461 9.59276 0.28334 9.40387 0.23975 9.20771C0.181628 8.98249 0.138038 8.75727 0.101712 8.52479C0.0944468 8.47756 0.0889979 8.42852 0.0835491 8.37948C0.0781002 8.33044 0.0726514 8.2814 0.0653862 8.23418C0.0217954 7.91452 0 7.59485 0 7.26792C0 7.0209 0.0145303 6.77389 0.0363257 6.52687C0.0401274 6.48506 0.0479078 6.44523 0.055503 6.40635C0.0624223 6.37092 0.0691879 6.33629 0.0726514 6.30166C0.0749777 6.2846 0.077304 6.26745 0.0796392 6.25025C0.0991822 6.10624 0.119344 5.95766 0.145303 5.81489C0.167098 5.70592 0.196158 5.59694 0.225218 5.48797L0.225219 5.48796C0.23003 5.46872 0.23484 5.44928 0.239684 5.4297C0.2641 5.33103 0.289353 5.22897 0.319666 5.13197C0.363257 5.00846 0.406848 4.89222 0.450438 4.77598C0.472234 4.72512 0.490397 4.67245 0.50856 4.61978C0.526723 4.5671 0.544885 4.51443 0.566681 4.46358C0.595741 4.39093 0.631259 4.31828 0.666777 4.24563C0.684536 4.2093 0.702296 4.17297 0.719249 4.13665C0.738194 4.09876 0.75613 4.05986 0.774186 4.0207C0.804598 3.95475 0.835347 3.88807 0.871816 3.82424C0.911612 3.74465 0.955856 3.67396 1.00107 3.60172C1.01363 3.58164 1.02627 3.56144 1.03891 3.5409C1.06071 3.50458 1.0817 3.46825 1.10269 3.43193C1.14466 3.35928 1.18664 3.28663 1.23507 3.21397C1.27558 3.15321 1.31962 3.09598 1.36472 3.03736C1.38433 3.01187 1.40415 2.98612 1.42397 2.95969C1.46393 2.90884 1.50207 2.85798 1.54021 2.80713C1.57835 2.75627 1.61649 2.70541 1.65645 2.65456C2.98597 1.03443 5.00568 0.00278275 7.26514 0.0100479C7.46856 0.0100479 7.67198 0.0245782 7.87541 0.0391084C7.90084 0.0391084 7.92445 0.042741 7.94806 0.0463736C7.97167 0.0500061 7.99528 0.0536387 8.02071 0.0536387C8.17328 0.068169 8.32585 0.0826993 8.47115 0.11176C8.53653 0.126288 8.60917 0.140816 8.68181 0.155345L8.68184 0.155351C8.79808 0.177146 8.92159 0.206207 9.03783 0.235267C9.13228 0.257063 9.21946 0.278858 9.30664 0.307918L9.58998 0.3951C9.64084 0.40963 9.68443 0.424161 9.73528 0.445956Z" fill="#FB3737"/>
<path d="M14.0944 4.79777L13.6253 4.97078L13.7458 5.29777H14.0944V4.79777ZM9.73528 0.445956L9.53832 0.905528L9.55068 0.910825L9.56331 0.91545L9.73528 0.445956ZM14.1016 4.79777L14.5724 4.62933L14.4538 4.29777H14.1016V4.79777ZM10.8541 14.5258L10.4975 14.1753L10.4861 14.187L10.4754 14.1993L10.8541 14.5258ZM7.92626 19.5387L8.39164 19.7216L8.3943 19.7148L8.39676 19.708L7.92626 19.5387ZM7.46856 19.9746L7.32036 19.4971L7.31585 19.4985L7.46856 19.9746ZM6.55315 19.5097L7.0284 19.3543L7.02831 19.354L6.55315 19.5097ZM3.94497 14.9472L4.32037 14.6169L4.31454 14.6103L4.30848 14.6039L3.94497 14.9472ZM3.78377 14.7614L4.16812 14.4416L4.16812 14.4416L3.78377 14.7614ZM3.58171 14.5331L3.21745 14.8756L3.22272 14.8812L3.22816 14.8866L3.58171 14.5331ZM0.399583 9.77439L-0.07663 9.92678L-0.0764123 9.92746L0.399583 9.77439ZM0.23975 9.20771L0.727843 9.09924L0.726005 9.09097L0.723888 9.08277L0.23975 9.20771ZM0.101712 8.52479L-0.392475 8.60082L-0.392294 8.60198L0.101712 8.52479ZM0.0653862 8.23418L-0.430101 8.30175L-0.4288 8.31021L0.0653862 8.23418ZM0.0363257 6.52687L-0.461623 6.48161L-0.461739 6.48293L0.0363257 6.52687ZM0.055503 6.40635L-0.435222 6.31049L-0.435222 6.31049L0.055503 6.40635ZM0.0726514 6.30166L-0.422764 6.2341L-0.423975 6.24298L-0.424867 6.2519L0.0726514 6.30166ZM0.0796392 6.25025L-0.415819 6.18301L-0.415819 6.18301L0.0796392 6.25025ZM0.145303 5.81489L-0.345063 5.71682L-0.346632 5.72545L0.145303 5.81489ZM0.225218 5.48797L0.708335 5.6168L0.710293 5.60946L0.712026 5.60206L0.225218 5.48797ZM0.225219 5.48796L-0.259905 5.36668L-0.261589 5.37387L0.225219 5.48796ZM0.239684 5.4297L-0.245678 5.30961L-0.245678 5.30961L0.239684 5.4297ZM0.319666 5.13197L-0.151829 4.96556L-0.154859 4.97414L-0.157574 4.98283L0.319666 5.13197ZM0.450438 4.77598L-0.009134 4.57902L-0.0136767 4.58962L-0.0177259 4.60042L0.450438 4.77598ZM0.50856 4.61978L0.0358734 4.45678L0.0358732 4.45678L0.50856 4.61978ZM0.566681 4.46358L1.02639 4.66059L1.03092 4.64927L0.566681 4.46358ZM0.666777 4.24563L0.217585 4.02602L0.217585 4.02602L0.666777 4.24563ZM0.719249 4.13665L0.271872 3.91296L0.266156 3.9252L0.719249 4.13665ZM0.774186 4.0207L0.320135 3.81133L0.320134 3.81133L0.774186 4.0207ZM0.871816 3.82424L1.30594 4.07231L1.31282 4.06026L1.31903 4.04785L0.871816 3.82424ZM1.00107 3.60172L0.577232 3.33646L0.577232 3.33646L1.00107 3.60172ZM1.03891 3.5409L1.46477 3.80297L1.46766 3.79815L1.03891 3.5409ZM1.10269 3.43193L1.53562 3.68207L1.53562 3.68207L1.10269 3.43193ZM1.23507 3.21397L1.6511 3.49132L1.6511 3.49132L1.23507 3.21397ZM1.36472 3.03736L0.968448 2.73245L0.968447 2.73246L1.36472 3.03736ZM1.42397 2.95969L1.03071 2.6507L1.02397 2.65969L1.42397 2.95969ZM1.54021 2.80713L1.94021 3.10713L1.94021 3.10712L1.54021 2.80713ZM1.65645 2.65456L1.26985 2.3373L1.26329 2.34565L1.65645 2.65456ZM7.26514 0.0100479L7.26353 0.510048H7.26514V0.0100479ZM7.87541 0.0391084L7.83979 0.537838L7.85757 0.539108H7.87541V0.0391084ZM7.94806 0.0463736L8.02409 -0.447812L8.02409 -0.447812L7.94806 0.0463736ZM8.02071 0.0536387L8.06812 -0.444109L8.04447 -0.446361H8.02071V0.0536387ZM8.47115 0.11176L8.57964 -0.376444L8.56921 -0.378531L8.47115 0.11176ZM8.68181 0.155345L8.78355 -0.33421L8.77987 -0.334946L8.68181 0.155345ZM8.68184 0.155351L8.58009 0.644985L8.58969 0.646787L8.68184 0.155351ZM9.03783 0.235267L8.91654 0.720419L8.9254 0.722463L9.03783 0.235267ZM9.30664 0.307918L9.14848 0.782389L9.1596 0.785808L9.30664 0.307918ZM9.58998 0.3951L9.44291 0.873087L9.45262 0.875863L9.58998 0.3951ZM14.5635 4.62477C13.7563 2.43619 12.0262 0.752627 9.90726 -0.0235377L9.56331 0.91545C11.4111 1.59231 12.9212 3.06182 13.6253 4.97078L14.5635 4.62477ZM14.1016 4.29777H14.0944V5.29777H14.1016V4.29777ZM15.0375 7.26792C15.0375 6.36483 14.8741 5.47246 14.5724 4.62933L13.6309 4.96621C13.8959 5.70688 14.0375 6.48549 14.0375 7.26792H15.0375ZM11.2107 14.8763C13.3025 12.7479 15.0375 10.6757 15.0375 7.26792H14.0375C14.0375 10.2534 12.5614 12.0753 10.4975 14.1753L11.2107 14.8763ZM8.39676 19.708C9.03705 17.9278 10.0012 16.281 11.2328 14.8523L10.4754 14.1993C9.16428 15.7202 8.13773 17.4735 7.45577 19.3695L8.39676 19.708ZM7.61676 20.4522C7.98555 20.3377 8.26144 20.053 8.39164 19.7216L7.46089 19.3559C7.43125 19.4313 7.37295 19.4808 7.32036 19.4971L7.61676 20.4522ZM6.07791 19.665C6.28683 20.3041 6.97415 20.6583 7.62128 20.4507L7.31585 19.4985C7.19287 19.538 7.06649 19.4708 7.0284 19.3543L6.07791 19.665ZM3.56957 15.2774C4.69474 16.5564 5.54703 18.0445 6.078 19.6653L7.02831 19.354C6.45497 17.6038 5.53457 15.997 4.32037 14.6169L3.56957 15.2774ZM3.39941 15.0812C3.45059 15.1427 3.51325 15.2183 3.58146 15.2905L4.30848 14.6039C4.26555 14.5584 4.22294 14.5075 4.16812 14.4416L3.39941 15.0812ZM3.22816 14.8866C3.28122 14.9397 3.33216 15.0003 3.39941 15.0812L4.16812 14.4416C4.1058 14.3667 4.02607 14.2703 3.93527 14.1795L3.22816 14.8866ZM-0.0764123 9.92746C0.556264 11.8949 1.83976 13.4104 3.21745 14.8756L3.94597 14.1905C2.57744 12.7351 1.43438 11.3591 0.875577 9.62133L-0.0764123 9.92746ZM-0.248344 9.31618C-0.199491 9.53601 -0.13537 9.74322 -0.0766295 9.92678L0.875795 9.622C0.818293 9.44231 0.766172 9.27173 0.727843 9.09924L-0.248344 9.31618ZM-0.392294 8.60198C-0.354158 8.84605 -0.307569 9.08783 -0.244389 9.33265L0.723888 9.08277C0.670825 8.87715 0.630233 8.6685 0.595718 8.4476L-0.392294 8.60198ZM-0.413393 8.4347C-0.408165 8.48175 -0.401614 8.5414 -0.392474 8.60082L0.595898 8.44876C0.590508 8.41372 0.586161 8.3753 0.580491 8.32427L-0.413393 8.4347ZM-0.4288 8.31021C-0.42341 8.34524 -0.419063 8.38367 -0.413393 8.4347L0.580491 8.32427C0.575263 8.27722 0.568712 8.21756 0.559572 8.15815L-0.4288 8.31021ZM-0.5 7.26792C-0.5 7.6174 -0.476679 7.95964 -0.430029 8.30174L0.560801 8.16662C0.52027 7.8694 0.5 7.5723 0.5 7.26792H-0.5ZM-0.461739 6.48293C-0.484352 6.73921 -0.5 7.0017 -0.5 7.26792H0.5C0.5 7.04011 0.513413 6.80857 0.534391 6.57082L-0.461739 6.48293ZM-0.435222 6.31049C-0.442149 6.34595 -0.455142 6.41033 -0.461621 6.48161L0.534272 6.57214C0.535396 6.55978 0.537965 6.54451 0.546228 6.5022L-0.435222 6.31049ZM-0.424867 6.2519C-0.42561 6.25933 -0.427481 6.27086 -0.435222 6.31049L0.546228 6.50221C0.552326 6.47099 0.563986 6.41325 0.57017 6.35141L-0.424867 6.2519ZM-0.415819 6.18301C-0.418158 6.20024 -0.420463 6.21723 -0.422764 6.2341L0.568067 6.36921C0.570418 6.35197 0.572766 6.33466 0.575098 6.31748L-0.415819 6.18301ZM-0.346632 5.72545C-0.374949 5.88119 -0.396554 6.04105 -0.415819 6.18301L0.575098 6.31748C0.594919 6.17143 0.613637 6.03414 0.637238 5.90433L-0.346632 5.72545ZM-0.2579 5.35914C-0.286234 5.46539 -0.319564 5.58972 -0.344988 5.71683L0.635593 5.91295C0.65376 5.82212 0.67855 5.72849 0.708335 5.6168L-0.2579 5.35914ZM-0.261589 5.37387L-0.26159 5.37387L0.712026 5.60206L0.712027 5.60206L-0.261589 5.37387ZM-0.245678 5.30961C-0.250548 5.32928 -0.255212 5.34813 -0.259852 5.36669L0.71029 5.60923C0.715272 5.5893 0.720228 5.56927 0.725046 5.5498L-0.245678 5.30961ZM-0.157574 4.98283C-0.193161 5.09671 -0.22193 5.21363 -0.245678 5.30961L0.725046 5.5498C0.750129 5.44843 0.771868 5.36123 0.796906 5.28111L-0.157574 4.98283ZM-0.0177259 4.60042C-0.0611011 4.71608 -0.10637 4.83676 -0.151829 4.96556L0.791161 5.29838C0.832884 5.18017 0.874796 5.06836 0.918603 4.95154L-0.0177259 4.60042ZM0.0358732 4.45678C0.0166861 4.51242 0.00427712 4.54773 -0.009134 4.57902L0.910011 4.97294C0.940191 4.90252 0.964108 4.83247 0.981246 4.78277L0.0358732 4.45678ZM0.107108 4.26662C0.0769283 4.33704 0.0530115 4.40708 0.0358734 4.45678L0.981246 4.78277C1.00043 4.72713 1.01284 4.69183 1.02625 4.66053L0.107108 4.26662ZM0.217585 4.02602C0.183631 4.09547 0.139601 4.18498 0.102442 4.27788L1.03092 4.64927C1.05188 4.59687 1.07889 4.54108 1.11597 4.46523L0.217585 4.02602ZM0.266156 3.9252C0.25144 3.95674 0.235689 3.98899 0.217585 4.02602L1.11597 4.46523C1.13338 4.42961 1.15315 4.38921 1.17234 4.34809L0.266156 3.9252ZM0.320134 3.81133C0.301494 3.85175 0.286848 3.88341 0.272036 3.91304L1.16646 4.36025C1.18954 4.3141 1.21077 4.26796 1.22824 4.23007L0.320134 3.81133ZM0.437695 3.57618C0.388628 3.66204 0.34905 3.74862 0.320135 3.81133L1.22824 4.23008C1.26015 4.16088 1.28207 4.11409 1.30594 4.07231L0.437695 3.57618ZM0.577232 3.33646C0.533596 3.40618 0.476715 3.49641 0.424603 3.60064L1.31903 4.04785C1.34651 3.99289 1.37812 3.94174 1.4249 3.86698L0.577232 3.33646ZM0.613086 3.27886C0.601597 3.29752 0.589954 3.31613 0.577232 3.33646L1.4249 3.86698C1.43731 3.84715 1.45095 3.82537 1.46474 3.80295L0.613086 3.27886ZM0.669753 3.18179C0.648436 3.21868 0.629492 3.25145 0.610168 3.28366L1.46766 3.79815C1.49193 3.75771 1.51496 3.71782 1.53562 3.68207L0.669753 3.18179ZM0.819049 2.93662C0.760333 3.0247 0.71063 3.11104 0.669752 3.18179L1.53562 3.68207C1.57869 3.60751 1.61294 3.54855 1.6511 3.49132L0.819049 2.93662ZM0.968447 2.73246C0.925047 2.78886 0.870524 2.85941 0.819048 2.93662L1.6511 3.49132C1.68064 3.44702 1.71418 3.4031 1.76099 3.34227L0.968447 2.73246ZM1.02397 2.65969C1.0063 2.68325 0.988346 2.70659 0.968448 2.73245L1.76099 3.34227C1.78032 3.31715 1.802 3.28898 1.82397 3.25969L1.02397 2.65969ZM1.14021 2.50713C1.10155 2.55867 1.06673 2.60506 1.03081 2.65078L1.81713 3.2686C1.86112 3.21261 1.90259 3.15729 1.94021 3.10713L1.14021 2.50713ZM1.26329 2.34565C1.2193 2.40164 1.17783 2.45696 1.14021 2.50713L1.94021 3.10712C1.97887 3.05558 2.01369 3.00919 2.04961 2.96347L1.26329 2.34565ZM7.26674 -0.48995C4.85053 -0.497719 2.69059 0.606191 1.26994 2.33737L2.04297 2.97174C3.28135 1.46267 5.16083 0.503284 7.26353 0.510045L7.26674 -0.48995ZM7.91103 -0.459621C7.71062 -0.473936 7.48938 -0.489952 7.26514 -0.489952V0.510048C7.44774 0.510048 7.63335 0.523093 7.83979 0.537838L7.91103 -0.459621ZM8.02409 -0.447812C8.0051 -0.450734 7.94483 -0.460892 7.87541 -0.460892V0.539108C7.86433 0.539108 7.85708 0.538308 7.85617 0.538205C7.85578 0.538161 7.85655 0.538242 7.85928 0.538633C7.8623 0.539067 7.86572 0.539588 7.87203 0.54056L8.02409 -0.447812ZM8.02071 -0.446361C8.03179 -0.446361 8.03904 -0.445561 8.03995 -0.445458C8.04034 -0.445414 8.03957 -0.445494 8.03684 -0.445886C8.03382 -0.44632 8.0304 -0.446841 8.02409 -0.447812L7.87203 0.540559C7.89102 0.543481 7.95129 0.553639 8.02071 0.553639V-0.446361ZM8.56921 -0.378531C8.39437 -0.413498 8.21576 -0.430048 8.06812 -0.444109L7.97331 0.551386C8.1308 0.566386 8.25732 0.578896 8.37309 0.60205L8.56921 -0.378531ZM8.77987 -0.334946C8.70597 -0.349726 8.63881 -0.363179 8.57961 -0.376334L8.36268 0.599853C8.43424 0.615755 8.51237 0.631358 8.58375 0.645635L8.77987 -0.334946ZM8.78357 -0.33419L8.78354 -0.334196L8.58008 0.644886L8.58011 0.644892L8.78357 -0.33419ZM9.1591 -0.249804C9.03934 -0.279743 8.90468 -0.311579 8.77398 -0.336086L8.58969 0.646787C8.69148 0.665871 8.80383 0.692156 8.91656 0.720338L9.1591 -0.249804ZM9.46475 -0.166423C9.35458 -0.203147 9.24888 -0.229169 9.15026 -0.251928L8.9254 0.722463C9.01567 0.743294 9.08433 0.760863 9.14853 0.78226L9.46475 -0.166423ZM9.73702 -0.0827893L9.45368 -0.169971L9.1596 0.785808L9.44294 0.872989L9.73702 -0.0827893ZM9.93224 -0.0136161C9.8572 -0.0457784 9.79277 -0.066967 9.72734 -0.0856623L9.45262 0.875863C9.4889 0.886228 9.51166 0.8941 9.53832 0.905528L9.93224 -0.0136161Z" fill="#B32318" mask="url(#path-1-inside-1_21076_243807)"/>
<path d="M8.2896 10.9104L7.5 11.7L6.7104 10.9104C5.1585 10.552 4 9.1604 4 7.5C4 5.568 5.568 4 7.5 4C9.432 4 11 5.568 11 7.5C11 9.1604 9.8415 10.552 8.2896 10.9104ZM5.40805 8.6956C5.92185 9.4621 6.69325 9.95 7.556 9.95C8.4184 9.95 9.19015 9.46245 9.7036 8.6956C9.12111 8.15121 8.35328 7.84888 7.556 7.85C6.7586 7.84879 5.99063 8.15113 5.40805 8.6956ZM7.5 7.15C7.77848 7.15 8.04555 7.03938 8.24246 6.84246C8.43938 6.64555 8.55 6.37848 8.55 6.1C8.55 5.82152 8.43938 5.55445 8.24246 5.35754C8.04555 5.16062 7.77848 5.05 7.5 5.05C7.22152 5.05 6.95445 5.16062 6.75754 5.35754C6.56062 5.55445 6.45 5.82152 6.45 6.1C6.45 6.37848 6.56062 6.64555 6.75754 6.84246C6.95445 7.03938 7.22152 7.15 7.5 7.15Z" fill="white"/>
</svg>
